<?xml version="1.0" encoding="UTF-8"?>
<!DOCTYPE svg PUBLIC "-//W3C//DTD SVG 1.1//EN" "http://www.w3.org/Graphics/SVG/1.1/DTD/svg11.dtd">
<!-- Creator: CorelDRAW -->
<svg xmlns="http://www.w3.org/2000/svg" xml:space="preserve" width="177px" height="50px" version="1.1" style="shape-rendering:geometricPrecision; text-rendering:geometricPrecision; image-rendering:optimizeQuality; fill-rule:evenodd; clip-rule:evenodd"
viewBox="0 0 175.09 49.35"
 xmlns:xlink="http://www.w3.org/1999/xlink"
 xmlns:xodm="http://www.corel.com/coreldraw/odm/2003">
 <defs>
  <style type="text/css">
   <![CDATA[
    .fil4 {fill:none}
    .fil2 {fill:#FEFEFE}
    .fil1 {fill:#16CA6C}
    .fil0 {fill:#2FDE83}
    .fil3 {fill:#43ED95}
   ]]>
  </style>
   <clipPath id="id0">
    <path d="M0 49.35l175.09 0 0 -49.35 -175.09 0 0 49.35z"/>
   </clipPath>
 </defs>
 <g id="Слой_x0020_1">
  <metadata id="CorelCorpID_0Corel-Layer"/>
  <g>
  </g>
  <g style="clip-path:url(#id0)">
   <g id="_1444228271808">
    <path class="fil0" d="M0.32 23.53c0.58,-0.35 4.28,2.02 4.69,4.02 -3.31,1.82 5.24,3.09 5.97,3.19 0.83,0.45 0.45,0.41 1.17,1.2 0.66,0.69 0.62,0.1 -0.03,0.52 0.96,1.06 0.69,2.16 3.07,1.51 0.65,-0.45 0.76,-1.34 1.73,-1.96 1.62,0.69 3.17,1.75 5.41,1.13 1.97,-0.51 2.93,-1.85 3.18,-4.02 0.31,-2.85 0.31,-11.29 0.03,-14.18l-4.66 -0.03c-1.38,-2.41 -0.96,-5.4 -0.55,-8.32 -1.1,-0.48 1.42,-2.5 -0.9,-2.95 -0.96,-0.38 -1.48,0.07 -2.38,0.14 0.35,-0.28 -1,-0.79 -0.79,-1.03 3.17,-3.13 -0.73,-2.78 -3.07,-2.72 -5.9,-0.13 -9.84,2.79 -11.67,6.63 -2.03,4.19 -1.03,11.78 -1.2,16.87z"/>
    <path class="fil1" d="M20.33 6.59c1.38,-1.44 3.8,-0.85 7.76,-0.85 3.21,0 7.22,-0.59 7.84,1.3 0.41,1.27 0.24,15.7 0.17,18.1 2.03,1.34 2.31,-0.38 4.28,1.37l3.45 4.33c1.07,1.1 1.65,1.96 2.59,2.3l-1.14 0.83 0.86 0.86c4.07,0.06 1.55,1.71 3.73,1.71l0 -36.51 -36.68 0c1.76,-0.03 3.83,0.28 2.93,2.79 0.14,0.13 0.1,0.92 0.59,1.13 1.27,0.62 3.1,-0.24 1.96,1.72l1.66 0.92z"/>
    <path class="fil2" d="M20.33 6.59c-0.41,2.92 -0.83,5.91 0.55,8.32l4.66 0.03c0.28,2.88 0.28,11.33 -0.03,14.18 -0.25,2.17 -1.21,3.51 -3.18,4.02 -2.24,0.62 -3.79,-0.44 -5.41,-1.13 -0.97,0.62 -1.08,1.51 -1.73,1.96 -1.24,4.26 -2.14,6.63 2.07,8.48 3.48,1.55 7.38,1.31 11.11,0.69 1.76,-0.83 2.38,-0.79 4,-2.03 1.21,-0.93 2.18,-1.89 2.9,-3.71 1.31,-3.33 0.73,-8.52 0.83,-12.26 0.07,-2.4 0.24,-16.83 -0.17,-18.1 -0.62,-1.89 -4.63,-1.31 -7.84,-1.31 -3.96,0 -6.38,-0.58 -7.76,0.86z"/>
    <path class="fil3" d="M0.32 23.53l0 25.82 33.5 0c-1.52,-0.34 -0.48,-0.58 0.86,-1.27 2.35,-0.99 -1.96,-2.88 -2.65,-3.19 0.86,-1.89 -2.42,-1.68 -3.66,-1.75 -3.73,0.62 -7.63,0.86 -11.11,-0.69 -4.21,-1.85 -3.31,-4.22 -2.07,-8.48 -1.62,0.34 -2.38,-1.65 -2.9,-2.2 -4.86,-5.87 -3.1,-1.38 -5.83,-3.23 -0.59,-1.92 -4.97,-5.7 -6.14,-5.01z"/>
    <path class="fil2" d="M109.01 12.6c-2.07,-0.75 -5.66,-0.68 -7.73,-0.03l-0.04 17.24c-1.79,0.69 -2.89,0.93 -4.45,-0.17 -0.86,-3.74 0.14,-12.36 -0.24,-16.86 -1.21,-0.93 -7.35,-1.45 -7.73,0.41 -0.31,1.37 -0.03,8.04 -0.03,9.96 0,5.05 -1.11,11.26 6.04,13.56 2.52,0.83 5.93,0.9 8.45,0.11 2.59,-0.86 4.35,-2.37 5.24,-4.78 0.9,-2.4 0.66,-16.14 0.49,-19.44z"/>
    <path class="fil2" d="M82.37 35.96c0.07,-2.37 0.41,-9.72 -0.03,-11.61 -1.32,-0.41 -4.63,-0.69 -5.21,0.17 -0.87,1.27 1.76,7.01 -3.11,5.81 -4.55,-1.1 -5.07,-9.86 -0.48,-11.44 2.93,-1.03 4.07,0.51 6.1,0.79 1.28,-1.75 2.52,-2.71 2.38,-6.15 -4.79,-3.43 -19.32,-3.33 -19.08,11.03 0.04,3.36 0.83,7.17 3.11,9.44 4.45,4.33 11.08,4.05 16.32,1.96z"/>
    <path class="fil2" d="M160.45 12.19c-0.34,3.81 -0.13,17.79 -0.13,22.91 0,1.65 0.34,1.92 1.96,1.96l11.8 -0.14 0.59 -1.13c0.38,-1.51 0.21,-3.61 -0.41,-4.88l-6.9 -0.07 0 -3.57c5.1,0 5.07,0.45 5.27,-1.82 0.07,-1.27 0.11,-2.27 -0.41,-3.37l-4.86 -0.07 0.06 -3.64 6.9 -0.03c0.56,-1.96 0.45,-4.22 0.07,-6.15l-13.94 0z"/>
    <path class="fil0" d="M28.37 43.14c5.07,1.2 0.48,2.75 2.97,3.43 6.76,1.89 -0.97,1.96 2.48,2.78 5.66,-0.1 7.59,0.42 11.63,-2.64 2.48,-1.85 4.52,-5.43 4.42,-10.17 -0.94,-0.17 -0.56,-1.3 -0.97,-1.95 -1.14,-1.69 -2.07,-3.95 -3.93,-5.71 -0.94,-0.82 -2.76,-0.3 -3.11,-0.96 -1,-1.95 -1,-2.88 -5.76,-2.78 -0.1,3.74 0.48,8.93 -0.83,12.26 -0.72,1.82 -1.69,2.78 -2.9,3.71 -1.62,1.24 -2.24,1.2 -4,2.03z"/>
    <path class="fil2" d="M116.46 18.24l1.55 0 0 12.67c-3.03,0 -3.45,-0.21 -3.41,3.06 0,4.19 0.79,3.05 12.49,3.05 2.27,0 1.58,-4.84 0.76,-6.08l-2.73 -0.06 0 -12.61c2.45,-0.17 3.07,0.59 3.31,-2.27 0.35,-4.01 -0.58,-3.91 -1.93,-3.91l-10.04 0c-1.1,0 -1.97,-0.45 -1.97,3.06 0,2.06 0.07,3.09 1.97,3.09z"/>
    <path class="fil2" d="M141.55 30.6c3.96,0 4.72,-2.13 4.72,-6.04 0.04,-3.57 -0.65,-6.22 -4.76,-5.57l0.04 11.61zm-6.94 -15.73l0 19.68c0,3.3 1.83,2.47 8.21,2.47 7.9,0 11.04,-5.32 11.04,-13.01 -0.03,-12.37 -8.21,-11.92 -17.04,-11.92 -2.14,0 -2.21,0.69 -2.21,2.78z"/>
   </g>
  </g>
  <polygon class="fil4" points="0,49.35 175.09,49.35 175.09,0 0,0 "/>
 </g>
</svg>
